# xmcd
#
# Track frame offsets:
#	150
#	11660
#	26945
#	40307
#	60000
#	75220
#	90877
#	107160
#	123762
#	140952
#	156525
#
# Disc length: 2242 seconds
#
# Revision: 1
# Processed by: cddbd v1.5.2PL0 Copyright (c) Steve Scherf et al.
# Submitted via: audiograbber 1.83.01
#
DISCID=8208c00b
DTITLE=Paul Overstreet - Christmas, My Favorite Time Of The Year
DYEAR=2001
DGENRE=Country
TTITLE0=Rocking Around The Christmas Tree
TTITLE1=The Greatest Christmas
TTITLE2=White Christmas
TTITLE3=Merry Christmas Mary
TTITLE4=Winter Wonderland
TTITLE5=I'll Be Home For Christmas
TTITLE6=Wise Men Still Seek Him
TTITLE7=Christmas, My Favorite Time Of The Year
TTITLE8=One Christmas Eve
TTITLE9=Silent Night
TTITLE10=How Do I Wrap My Heart Up For Christmas
EXTD=
EXTT0=
EXTT1=
EXTT2=
EXTT3=
EXTT4=
EXTT5=
EXTT6=
EXTT7=
EXTT8=
EXTT9=
EXTT10=
PLAYORDER=
